<svg id="Calque_1" data-name="Calque 1" xmlns="http://www.w3.org/2000/svg" viewBox="0 0 184.25 184.25"><defs><style>.cls-1{fill:#e00500;}.cls-2{fill:#fff;}</style></defs><rect class="cls-1" width="184.25" height="184.25"/><path class="cls-2" d="M54.81,106a8.34,8.34,0,0,0-8.57-8.55,8.43,8.43,0,0,0-6,2.51,8.84,8.84,0,0,0-2.39,6.1,8.32,8.32,0,0,0,8.48,8.48A8.33,8.33,0,0,0,54.78,106ZM35.1,95.33h2.78v4.46a9.8,9.8,0,0,1,8.92-5.05c7.18,0,11,5.82,11,11.36a10.84,10.84,0,0,1-11,11.17c-4.74,0-7.77-2.72-8.76-5v12.44H35.1V95.33Z"/><path class="cls-2" d="M63.82,106.07a8.57,8.57,0,1,0,0-.06ZM60.91,106a11.33,11.33,0,1,1,11.3,11.26A11.05,11.05,0,0,1,60.91,106Z"/><path class="cls-2" d="M97.59,100.68a3.34,3.34,0,0,0-3.65-3.52c-2.36,0-3.78,1.57-3.69,3.46s1.64,2.85,4.21,3.62c3.07.84,6.47,1.71,6.63,6.29.15,3.93-3,6.77-7.06,6.77-3.47,0-7.27-2.16-7.3-6.65h2.9a4.22,4.22,0,0,0,4.46,4.24,3.94,3.94,0,0,0,4.12-4c-.09-2.42-1.67-3.41-5.36-4.49-3.06-.9-5.44-2.14-5.51-5.51,0-3.84,3.07-6.1,6.66-6.1,3,0,6.31,1.64,6.5,6H97.59Z"/><path class="cls-2" d="M105.82,95.33h2.94v21.36h-2.94Zm0-8h2.94v4.09h-2.94Z"/><polygon class="cls-2" points="116.13 97.68 111.92 97.68 111.92 95.33 116.13 95.33 116.13 87.31 119.04 87.31 119.04 95.33 123.71 95.33 123.71 97.68 119.04 97.68 119.04 116.69 116.13 116.69 116.13 97.68"/><path class="cls-2" d="M126.93,95.33h2.94v21.36h-2.94Zm0-8h2.94v4.09h-2.94Z"/><path class="cls-2" d="M136.09,97.68H133V95.33h3.12V93.6c0-6.6,5.2-6.78,7.49-6.78v2.35c-1.45.09-4.61.09-4.61,4.74v1.45h4.61v2.35H139v19h-2.91v-19Z"/><rect class="cls-2" x="146.06" y="112.32" width="3.1" height="4.36"/><polygon class="cls-2" points="52.99 62.8 47.08 62.8 47.08 59.98 56.27 59.98 56.27 89.36 52.99 89.36 52.99 62.8"/><path class="cls-2" d="M65.62,80a6.58,6.58,0,0,0,6.65,6.93A6.71,6.71,0,0,0,78.93,80V69.3c0-2.91-1.74-6.93-6.75-6.93-3.84,0-6.59,2.84-6.59,7.08V80ZM62.3,69.61c0-8.48,7.06-10.15,9.91-10.15,4.73,0,10,3.25,10,9.9V79.92c0,7.73-6.6,9.9-9.85,9.9-3.71,0-10-2.38-10-9.9Z"/></svg>